<mxfile host="65bd71144e">
    <diagram id="_P1GkzgVPsLbAwyrR4X8" name="Page-1">
        <mxGraphModel dx="870" dy="590" grid="1" gridSize="4" guides="1" tooltips="1" connect="1" arrows="1" fold="1" page="1" pageScale="1" pageWidth="850" pageHeight="1100" math="0" shadow="0">
            <root>
                <mxCell id="0"/>
                <mxCell id="1" parent="0"/>
                <mxCell id="3" value="Student" style="shape=umlLifeline;perimeter=lifelinePerimeter;whiteSpace=wrap;html=1;container=1;collapsible=0;recursiveResize=0;outlineConnect=0;" parent="1" vertex="1">
                    <mxGeometry x="32" y="48" width="80" height="412" as="geometry"/>
                </mxCell>
                <mxCell id="9" value="Smarti" style="shape=umlLifeline;perimeter=lifelinePerimeter;whiteSpace=wrap;html=1;container=1;collapsible=0;recursiveResize=0;outlineConnect=0;" parent="1" vertex="1">
                    <mxGeometry x="144" y="48" width="80" height="416" as="geometry"/>
                </mxCell>
                <mxCell id="10" value="" style="html=1;points=[];perimeter=orthogonalPerimeter;" parent="9" vertex="1">
                    <mxGeometry x="35" y="80" width="10" height="272" as="geometry"/>
                </mxCell>
                <mxCell id="30" value="" style="html=1;points=[];perimeter=orthogonalPerimeter;fillColor=#FF6666;" parent="9" vertex="1">
                    <mxGeometry x="35" y="188" width="10" height="100" as="geometry"/>
                </mxCell>
                <mxCell id="11" value="ask question" style="html=1;verticalAlign=bottom;endArrow=block;entryX=-0.083;entryY=0.119;entryDx=0;entryDy=0;entryPerimeter=0;" parent="1" source="3" target="10" edge="1">
                    <mxGeometry relative="1" as="geometry">
                        <mxPoint x="109" y="128" as="sourcePoint"/>
                    </mxGeometry>
                </mxCell>
                <mxCell id="12" value="sollution" style="html=1;verticalAlign=bottom;endArrow=open;dashed=1;endSize=8;exitX=-0.283;exitY=0.825;exitDx=0;exitDy=0;exitPerimeter=0;" parent="1" source="10" target="3" edge="1">
                    <mxGeometry relative="1" as="geometry">
                        <mxPoint x="109" y="204" as="targetPoint"/>
                    </mxGeometry>
                </mxCell>
                <mxCell id="15" value="PrivateGPT" style="shape=umlLifeline;perimeter=lifelinePerimeter;whiteSpace=wrap;html=1;container=1;collapsible=0;recursiveResize=0;outlineConnect=0;" parent="1" vertex="1">
                    <mxGeometry x="256" y="48" width="80" height="416" as="geometry"/>
                </mxCell>
                <mxCell id="18" value="" style="html=1;points=[];perimeter=orthogonalPerimeter;" parent="15" vertex="1">
                    <mxGeometry x="35" y="128" width="10" height="32" as="geometry"/>
                </mxCell>
                <mxCell id="19" value="solve" style="html=1;verticalAlign=bottom;endArrow=block;entryX=0;entryY=0;exitX=0.917;exitY=0.174;exitDx=0;exitDy=0;exitPerimeter=0;" parent="1" source="10" target="18" edge="1">
                    <mxGeometry relative="1" as="geometry">
                        <mxPoint x="196" y="176" as="sourcePoint"/>
                    </mxGeometry>
                </mxCell>
                <mxCell id="20" value="solution" style="html=1;verticalAlign=bottom;endArrow=open;dashed=1;endSize=8;exitX=0;exitY=0.95;" parent="1" source="18" edge="1">
                    <mxGeometry relative="1" as="geometry">
                        <mxPoint x="188" y="206" as="targetPoint"/>
                    </mxGeometry>
                </mxCell>
                <mxCell id="21" value="ChatGPT" style="shape=umlLifeline;perimeter=lifelinePerimeter;whiteSpace=wrap;html=1;container=1;collapsible=0;recursiveResize=0;outlineConnect=0;" parent="1" vertex="1">
                    <mxGeometry x="368" y="48" width="80" height="416" as="geometry"/>
                </mxCell>
                <mxCell id="27" value="" style="html=1;points=[];perimeter=orthogonalPerimeter;" parent="21" vertex="1">
                    <mxGeometry x="35" y="192" width="10" height="32" as="geometry"/>
                </mxCell>
                <mxCell id="23" value="Knowledge&lt;br&gt;Base" style="shape=umlLifeline;perimeter=lifelinePerimeter;whiteSpace=wrap;html=1;container=1;collapsible=0;recursiveResize=0;outlineConnect=0;" parent="1" vertex="1">
                    <mxGeometry x="480" y="48" width="80" height="416" as="geometry"/>
                </mxCell>
                <mxCell id="24" value="" style="html=1;points=[];perimeter=orthogonalPerimeter;" parent="23" vertex="1">
                    <mxGeometry x="35" y="128" width="10" height="20" as="geometry"/>
                </mxCell>
                <mxCell id="32" value="" style="html=1;points=[];perimeter=orthogonalPerimeter;fillColor=#FFFFFF;" parent="23" vertex="1">
                    <mxGeometry x="35" y="256" width="10" height="20" as="geometry"/>
                </mxCell>
                <mxCell id="26" value="return" style="html=1;verticalAlign=bottom;endArrow=open;dashed=1;endSize=8;exitX=0;exitY=0.95;" parent="1" source="24" edge="1">
                    <mxGeometry relative="1" as="geometry">
                        <mxPoint x="300" y="195" as="targetPoint"/>
                    </mxGeometry>
                </mxCell>
                <mxCell id="25" value="read semantic index" style="html=1;verticalAlign=bottom;endArrow=block;entryX=0;entryY=0;" parent="1" source="15" target="24" edge="1">
                    <mxGeometry relative="1" as="geometry">
                        <mxPoint x="445" y="176" as="sourcePoint"/>
                    </mxGeometry>
                </mxCell>
                <mxCell id="28" value="if PrivateGPT cannot solve, call ChatGPT" style="html=1;verticalAlign=bottom;endArrow=block;entryX=0;entryY=0;exitX=0.5;exitY=0.063;exitDx=0;exitDy=0;exitPerimeter=0;" parent="1" source="30" target="27" edge="1">
                    <mxGeometry relative="1" as="geometry">
                        <mxPoint x="333" y="240" as="sourcePoint"/>
                    </mxGeometry>
                </mxCell>
                <mxCell id="29" value="solution" style="html=1;verticalAlign=bottom;endArrow=open;dashed=1;endSize=8;exitX=0;exitY=0.95;" parent="1" source="27" target="9" edge="1">
                    <mxGeometry relative="1" as="geometry">
                        <mxPoint x="333" y="316" as="targetPoint"/>
                    </mxGeometry>
                </mxCell>
                <mxCell id="33" value="build semantic index from question and solution" style="html=1;verticalAlign=bottom;endArrow=block;entryX=0;entryY=0;" parent="1" source="9" target="32" edge="1">
                    <mxGeometry relative="1" as="geometry">
                        <mxPoint x="340" y="304" as="sourcePoint"/>
                    </mxGeometry>
                </mxCell>
                <mxCell id="34" value="return" style="html=1;verticalAlign=bottom;endArrow=open;dashed=1;endSize=8;exitX=0;exitY=0.95;" parent="1" source="32" target="9" edge="1">
                    <mxGeometry relative="1" as="geometry">
                        <mxPoint x="445" y="380" as="targetPoint"/>
                    </mxGeometry>
                </mxCell>
                <mxCell id="35" value="sollution" style="html=1;verticalAlign=bottom;endArrow=open;dashed=1;endSize=8;exitX=0.017;exitY=0.303;exitDx=0;exitDy=0;exitPerimeter=0;" parent="1" source="10" target="3" edge="1">
                    <mxGeometry relative="1" as="geometry">
                        <mxPoint x="75.5" y="356.4" as="targetPoint"/>
                        <mxPoint x="180.16999999999996" y="356.4" as="sourcePoint"/>
                    </mxGeometry>
                </mxCell>
            </root>
        </mxGraphModel>
    </diagram>
    <diagram id="U85_4ZoCF5jd8dbYE_jc" name="Page-2">
        <mxGraphModel dx="870" dy="590" grid="1" gridSize="4" guides="1" tooltips="1" connect="1" arrows="1" fold="1" page="1" pageScale="1" pageWidth="850" pageHeight="1100" math="0" shadow="0">
            <root>
                <mxCell id="0"/>
                <mxCell id="1" parent="0"/>
                <mxCell id="qWAj0_rxd9BKLFwcTVyo-11" value="" style="rounded=0;whiteSpace=wrap;html=1;sketch=1;strokeColor=#000000;fontFamily=Comic Sans MS;fillColor=none;dashed=1;" parent="1" vertex="1">
                    <mxGeometry x="188" y="132" width="420" height="188" as="geometry"/>
                </mxCell>
                <mxCell id="qWAj0_rxd9BKLFwcTVyo-1" value="user" style="rounded=1;whiteSpace=wrap;html=1;fillColor=#FFFFFF;sketch=1;curveFitting=1;jiggle=2;fontFamily=Comic Sans MS;" parent="1" vertex="1">
                    <mxGeometry x="48" y="244" width="100" height="48" as="geometry"/>
                </mxCell>
                <mxCell id="qWAj0_rxd9BKLFwcTVyo-5" value="" style="endArrow=classic;html=1;fontFamily=Comic Sans MS;exitX=1;exitY=0.5;exitDx=0;exitDy=0;entryX=0;entryY=0.5;entryDx=0;entryDy=0;sketch=1;curveFitting=1;jiggle=2;" parent="1" source="qWAj0_rxd9BKLFwcTVyo-1" edge="1">
                    <mxGeometry width="50" height="50" relative="1" as="geometry">
                        <mxPoint x="172" y="390" as="sourcePoint"/>
                        <mxPoint x="212" y="268" as="targetPoint"/>
                    </mxGeometry>
                </mxCell>
                <mxCell id="qWAj0_rxd9BKLFwcTVyo-7" value="" style="verticalLabelPosition=bottom;verticalAlign=top;html=1;shape=mxgraph.basic.layered_rect;dx=6.42;outlineConnect=0;whiteSpace=wrap;sketch=1;strokeColor=#000000;fontFamily=Comic Sans MS;fillColor=none;" parent="1" vertex="1">
                    <mxGeometry x="376" y="244" width="92" height="48" as="geometry"/>
                </mxCell>
                <mxCell id="qWAj0_rxd9BKLFwcTVyo-8" value="" style="verticalLabelPosition=bottom;verticalAlign=top;html=1;shape=mxgraph.basic.layered_rect;dx=6.42;outlineConnect=0;whiteSpace=wrap;sketch=1;strokeColor=#000000;fontFamily=Comic Sans MS;fillColor=none;" parent="1" vertex="1">
                    <mxGeometry x="212" y="244" width="92" height="48" as="geometry"/>
                </mxCell>
                <mxCell id="qWAj0_rxd9BKLFwcTVyo-10" value="" style="endArrow=classic;html=1;sketch=1;fontFamily=Comic Sans MS;exitX=0;exitY=0;exitDx=92;exitDy=27.21;exitPerimeter=0;" parent="1" source="qWAj0_rxd9BKLFwcTVyo-8" target="qWAj0_rxd9BKLFwcTVyo-7" edge="1">
                    <mxGeometry width="50" height="50" relative="1" as="geometry">
                        <mxPoint x="288" y="462" as="sourcePoint"/>
                        <mxPoint x="338" y="412" as="targetPoint"/>
                    </mxGeometry>
                </mxCell>
                <mxCell id="qWAj0_rxd9BKLFwcTVyo-12" value="" style="endArrow=classic;html=1;sketch=1;fontFamily=Comic Sans MS;exitX=0;exitY=0;exitDx=0;exitDy=0;exitPerimeter=0;edgeStyle=orthogonalEdgeStyle;" parent="1" source="qWAj0_rxd9BKLFwcTVyo-7" target="qWAj0_rxd9BKLFwcTVyo-8" edge="1">
                    <mxGeometry width="50" height="50" relative="1" as="geometry">
                        <mxPoint x="424" y="218" as="sourcePoint"/>
                        <mxPoint x="474" y="168" as="targetPoint"/>
                        <Array as="points">
                            <mxPoint x="376" y="248"/>
                            <mxPoint x="396" y="248"/>
                            <mxPoint x="396" y="224"/>
                            <mxPoint x="272" y="224"/>
                        </Array>
                    </mxGeometry>
                </mxCell>
                <mxCell id="qWAj0_rxd9BKLFwcTVyo-13" value="chain" style="edgeLabel;html=1;align=center;verticalAlign=middle;resizable=0;points=[];fontFamily=Comic Sans MS;" parent="qWAj0_rxd9BKLFwcTVyo-12" vertex="1" connectable="0">
                    <mxGeometry x="0.0844" relative="1" as="geometry">
                        <mxPoint as="offset"/>
                    </mxGeometry>
                </mxCell>
                <mxCell id="qWAj0_rxd9BKLFwcTVyo-14" value="memory" style="rounded=1;whiteSpace=wrap;html=1;sketch=1;strokeColor=#000000;fontFamily=Comic Sans MS;fillColor=none;" parent="1" vertex="1">
                    <mxGeometry x="216" y="164" width="88" height="48" as="geometry"/>
                </mxCell>
                <mxCell id="qWAj0_rxd9BKLFwcTVyo-15" value="" style="endArrow=classic;html=1;sketch=1;fontFamily=Comic Sans MS;entryX=0.174;entryY=0.961;entryDx=0;entryDy=0;entryPerimeter=0;edgeStyle=orthogonalEdgeStyle;exitX=0;exitY=0;exitDx=21.395;exitDy=0;exitPerimeter=0;" parent="1" source="qWAj0_rxd9BKLFwcTVyo-8" target="qWAj0_rxd9BKLFwcTVyo-14" edge="1">
                    <mxGeometry width="50" height="50" relative="1" as="geometry">
                        <mxPoint x="148" y="450" as="sourcePoint"/>
                        <mxPoint x="198" y="400" as="targetPoint"/>
                    </mxGeometry>
                </mxCell>
                <mxCell id="qWAj0_rxd9BKLFwcTVyo-16" value="" style="endArrow=classic;html=1;sketch=1;fontFamily=Comic Sans MS;exitX=0.352;exitY=0.992;exitDx=0;exitDy=0;exitPerimeter=0;edgeStyle=orthogonalEdgeStyle;entryX=0.25;entryY=0;entryDx=0;entryDy=0;" parent="1" source="qWAj0_rxd9BKLFwcTVyo-14" target="qWAj0_rxd9BKLFwcTVyo-18" edge="1">
                    <mxGeometry width="50" height="50" relative="1" as="geometry">
                        <mxPoint x="256" y="208" as="sourcePoint"/>
                        <mxPoint x="247" y="240" as="targetPoint"/>
                    </mxGeometry>
                </mxCell>
                <mxCell id="qWAj0_rxd9BKLFwcTVyo-17" value="" style="endArrow=classic;html=1;sketch=1;fontFamily=Comic Sans MS;exitX=0;exitY=0;exitDx=27.814999999999998;exitDy=48;exitPerimeter=0;entryX=0.826;entryY=0.995;entryDx=0;entryDy=0;entryPerimeter=0;edgeStyle=orthogonalEdgeStyle;curved=1;" parent="1" source="qWAj0_rxd9BKLFwcTVyo-7" target="qWAj0_rxd9BKLFwcTVyo-1" edge="1">
                    <mxGeometry width="50" height="50" relative="1" as="geometry">
                        <mxPoint x="224" y="426" as="sourcePoint"/>
                        <mxPoint x="274" y="376" as="targetPoint"/>
                        <Array as="points">
                            <mxPoint x="404" y="312"/>
                            <mxPoint x="131" y="312"/>
                        </Array>
                    </mxGeometry>
                </mxCell>
                <mxCell id="qWAj0_rxd9BKLFwcTVyo-18" value="Prompts" style="text;html=1;strokeColor=none;fillColor=none;align=center;verticalAlign=middle;whiteSpace=wrap;rounded=0;sketch=1;fontFamily=Comic Sans MS;" parent="1" vertex="1">
                    <mxGeometry x="224" y="253" width="60" height="30" as="geometry"/>
                </mxCell>
                <mxCell id="qWAj0_rxd9BKLFwcTVyo-21" value="Models" style="text;html=1;strokeColor=none;fillColor=none;align=center;verticalAlign=middle;whiteSpace=wrap;rounded=0;sketch=1;fontFamily=Comic Sans MS;" parent="1" vertex="1">
                    <mxGeometry x="392" y="256" width="60" height="30" as="geometry"/>
                </mxCell>
                <mxCell id="qWAj0_rxd9BKLFwcTVyo-22" value="vector store" style="shape=cylinder3;whiteSpace=wrap;html=1;boundedLbl=1;backgroundOutline=1;size=4.749969482421875;sketch=1;strokeColor=#000000;fontFamily=Comic Sans MS;fillColor=none;" parent="1" vertex="1">
                    <mxGeometry x="384" y="164" width="84" height="48" as="geometry"/>
                </mxCell>
                <mxCell id="qWAj0_rxd9BKLFwcTVyo-23" value="" style="endArrow=classic;html=1;sketch=1;fontFamily=Comic Sans MS;exitX=0;exitY=0;exitDx=42.79;exitDy=0;exitPerimeter=0;entryX=0.5;entryY=1;entryDx=0;entryDy=0;entryPerimeter=0;edgeStyle=orthogonalEdgeStyle;" parent="1" source="qWAj0_rxd9BKLFwcTVyo-7" target="qWAj0_rxd9BKLFwcTVyo-22" edge="1">
                    <mxGeometry width="50" height="50" relative="1" as="geometry">
                        <mxPoint x="316" y="422" as="sourcePoint"/>
                        <mxPoint x="366" y="372" as="targetPoint"/>
                    </mxGeometry>
                </mxCell>
                <mxCell id="qWAj0_rxd9BKLFwcTVyo-25" value="1. User asks a question" style="shape=note;whiteSpace=wrap;html=1;backgroundOutline=1;darkOpacity=0.05;sketch=1;strokeColor=#d6b656;fontFamily=Comic Sans MS;fontSize=10;fillColor=#fff2cc;size=10;align=left;verticalAlign=top;fontStyle=0;fontColor=#000099;" parent="1" vertex="1">
                    <mxGeometry x="32" y="176" width="80" height="40" as="geometry"/>
                </mxCell>
                <mxCell id="qWAj0_rxd9BKLFwcTVyo-26" value="" style="endArrow=none;dashed=1;html=1;dashPattern=1 3;strokeWidth=1;sketch=1;fontFamily=Comic Sans MS;fontSize=9;fontColor=#000099;exitX=1;exitY=1;exitDx=0;exitDy=0;exitPerimeter=0;" parent="1" source="qWAj0_rxd9BKLFwcTVyo-25" edge="1">
                    <mxGeometry width="50" height="50" relative="1" as="geometry">
                        <mxPoint x="28" y="466" as="sourcePoint"/>
                        <mxPoint x="176" y="264" as="targetPoint"/>
                    </mxGeometry>
                </mxCell>
                <mxCell id="qWAj0_rxd9BKLFwcTVyo-27" value="8. Get an answer" style="shape=note;whiteSpace=wrap;html=1;backgroundOutline=1;darkOpacity=0.05;sketch=1;strokeColor=#d6b656;fontFamily=Comic Sans MS;fontSize=10;fillColor=#fff2cc;size=10;align=left;verticalAlign=top;fontStyle=0;fontColor=#000099;" parent="1" vertex="1">
                    <mxGeometry x="48" y="336" width="92" height="28" as="geometry"/>
                </mxCell>
                <mxCell id="qWAj0_rxd9BKLFwcTVyo-28" value="" style="endArrow=none;dashed=1;html=1;dashPattern=1 3;strokeWidth=1;sketch=1;fontFamily=Comic Sans MS;fontSize=9;fontColor=#000099;exitX=0.5;exitY=0;exitDx=0;exitDy=0;exitPerimeter=0;fontStyle=0" parent="1" source="qWAj0_rxd9BKLFwcTVyo-27" edge="1">
                    <mxGeometry width="50" height="50" relative="1" as="geometry">
                        <mxPoint x="224" y="478" as="sourcePoint"/>
                        <mxPoint x="240" y="312" as="targetPoint"/>
                    </mxGeometry>
                </mxCell>
                <mxCell id="qWAj0_rxd9BKLFwcTVyo-29" value="2. Prompt templates handle redundancies, a common parts for all questions" style="shape=note;whiteSpace=wrap;html=1;backgroundOutline=1;darkOpacity=0.05;sketch=1;strokeColor=#d6b656;fontFamily=Comic Sans MS;fontSize=10;fillColor=#fff2cc;size=10;align=left;verticalAlign=top;fontStyle=0;fontColor=#000099;" parent="1" vertex="1">
                    <mxGeometry x="192" y="336" width="116" height="56" as="geometry"/>
                </mxCell>
                <mxCell id="qWAj0_rxd9BKLFwcTVyo-30" value="" style="endArrow=none;dashed=1;html=1;dashPattern=1 3;strokeWidth=1;sketch=1;fontFamily=Comic Sans MS;fontSize=9;fontColor=#000099;exitX=0;exitY=0;exitDx=67;exitDy=0;exitPerimeter=0;entryX=0;entryY=0;entryDx=27.814999999999998;entryDy=48;entryPerimeter=0;" parent="1" source="qWAj0_rxd9BKLFwcTVyo-29" target="qWAj0_rxd9BKLFwcTVyo-8" edge="1">
                    <mxGeometry width="50" height="50" relative="1" as="geometry">
                        <mxPoint x="148" y="514" as="sourcePoint"/>
                        <mxPoint x="198" y="464" as="targetPoint"/>
                    </mxGeometry>
                </mxCell>
                <mxCell id="qWAj0_rxd9BKLFwcTVyo-31" value="3. LangChain supports multiple LLMs including GPT4, HuggingFace,&amp;nbsp; Cohere, and more" style="shape=note;whiteSpace=wrap;html=1;backgroundOutline=1;darkOpacity=0.05;sketch=1;strokeColor=#d6b656;fontFamily=Comic Sans MS;fontSize=10;fillColor=#fff2cc;size=10;align=left;verticalAlign=top;fontStyle=0;fontColor=#000099;" parent="1" vertex="1">
                    <mxGeometry x="384" y="336" width="116" height="60" as="geometry"/>
                </mxCell>
                <mxCell id="qWAj0_rxd9BKLFwcTVyo-32" value="" style="endArrow=none;dashed=1;html=1;dashPattern=1 3;strokeWidth=1;sketch=1;fontFamily=Comic Sans MS;fontSize=9;fontColor=#000099;exitX=0.5;exitY=0;exitDx=0;exitDy=0;exitPerimeter=0;entryX=0;entryY=0;entryDx=49.21;entryDy=48;entryPerimeter=0;" parent="1" source="qWAj0_rxd9BKLFwcTVyo-31" target="qWAj0_rxd9BKLFwcTVyo-7" edge="1">
                    <mxGeometry width="50" height="50" relative="1" as="geometry">
                        <mxPoint x="263" y="344" as="sourcePoint"/>
                        <mxPoint x="243.81500000000005" y="296" as="targetPoint"/>
                    </mxGeometry>
                </mxCell>
                <mxCell id="qWAj0_rxd9BKLFwcTVyo-33" value="4. Chains allow us to chain together multiple prompts.&amp;nbsp;" style="shape=note;whiteSpace=wrap;html=1;backgroundOutline=1;darkOpacity=0.05;sketch=1;strokeColor=#d6b656;fontFamily=Comic Sans MS;fontSize=10;fillColor=#fff2cc;size=10;align=left;verticalAlign=top;fontStyle=0;fontColor=#000099;" parent="1" vertex="1">
                    <mxGeometry x="384" y="64" width="116" height="48" as="geometry"/>
                </mxCell>
                <mxCell id="qWAj0_rxd9BKLFwcTVyo-34" value="" style="endArrow=none;dashed=1;html=1;dashPattern=1 3;strokeWidth=1;sketch=1;fontFamily=Comic Sans MS;fontSize=9;fontColor=#000099;exitX=0.241;exitY=1;exitDx=0;exitDy=0;exitPerimeter=0;" parent="1" source="qWAj0_rxd9BKLFwcTVyo-33" edge="1">
                    <mxGeometry width="50" height="50" relative="1" as="geometry">
                        <mxPoint x="564" y="318" as="sourcePoint"/>
                        <mxPoint x="344" y="228" as="targetPoint"/>
                    </mxGeometry>
                </mxCell>
                <mxCell id="qWAj0_rxd9BKLFwcTVyo-35" value="5. Memory allows to keep past data within the same prompt." style="shape=note;whiteSpace=wrap;html=1;backgroundOutline=1;darkOpacity=0.05;sketch=1;strokeColor=#d6b656;fontFamily=Comic Sans MS;fontSize=10;fillColor=#fff2cc;size=10;align=left;verticalAlign=top;fontStyle=0;fontColor=#000099;" parent="1" vertex="1">
                    <mxGeometry x="192" y="64" width="116" height="48" as="geometry"/>
                </mxCell>
                <mxCell id="qWAj0_rxd9BKLFwcTVyo-37" value="" style="endArrow=none;dashed=1;html=1;dashPattern=1 3;strokeWidth=1;sketch=1;fontFamily=Comic Sans MS;fontSize=9;fontColor=#000099;exitX=0.5;exitY=1;exitDx=0;exitDy=0;exitPerimeter=0;entryX=0.5;entryY=0;entryDx=0;entryDy=0;" parent="1" source="qWAj0_rxd9BKLFwcTVyo-35" target="qWAj0_rxd9BKLFwcTVyo-14" edge="1">
                    <mxGeometry width="50" height="50" relative="1" as="geometry">
                        <mxPoint x="415.95600000000013" y="116" as="sourcePoint"/>
                        <mxPoint x="348" y="232" as="targetPoint"/>
                    </mxGeometry>
                </mxCell>
                <mxCell id="qWAj0_rxd9BKLFwcTVyo-38" value="agent" style="rounded=1;whiteSpace=wrap;html=1;sketch=1;strokeColor=#000000;fontFamily=Comic Sans MS;fillColor=none;" parent="1" vertex="1">
                    <mxGeometry x="512" y="205" width="64" height="48" as="geometry"/>
                </mxCell>
                <mxCell id="qWAj0_rxd9BKLFwcTVyo-39" value="" style="endArrow=classic;html=1;sketch=1;strokeWidth=1;fontFamily=Comic Sans MS;fontSize=9;fontColor=#000099;exitX=0;exitY=0;exitDx=92;exitDy=27.21;exitPerimeter=0;entryX=0.5;entryY=1;entryDx=0;entryDy=0;edgeStyle=orthogonalEdgeStyle;" parent="1" source="qWAj0_rxd9BKLFwcTVyo-7" target="qWAj0_rxd9BKLFwcTVyo-38" edge="1">
                    <mxGeometry width="50" height="50" relative="1" as="geometry">
                        <mxPoint x="528" y="326" as="sourcePoint"/>
                        <mxPoint x="578" y="276" as="targetPoint"/>
                    </mxGeometry>
                </mxCell>
                <mxCell id="qWAj0_rxd9BKLFwcTVyo-40" value="" style="endArrow=classic;html=1;sketch=1;strokeWidth=1;fontFamily=Comic Sans MS;fontSize=9;fontColor=#000099;exitX=0.5;exitY=0;exitDx=0;exitDy=0;entryX=1;entryY=0.5;entryDx=0;entryDy=0;entryPerimeter=0;edgeStyle=orthogonalEdgeStyle;" parent="1" source="qWAj0_rxd9BKLFwcTVyo-38" target="qWAj0_rxd9BKLFwcTVyo-22" edge="1">
                    <mxGeometry width="50" height="50" relative="1" as="geometry">
                        <mxPoint x="652" y="390" as="sourcePoint"/>
                        <mxPoint x="702" y="340" as="targetPoint"/>
                    </mxGeometry>
                </mxCell>
                <mxCell id="qWAj0_rxd9BKLFwcTVyo-41" value="6. Agents allow us to interact with external components.&amp;nbsp;&amp;nbsp;" style="shape=note;whiteSpace=wrap;html=1;backgroundOutline=1;darkOpacity=0.05;sketch=1;strokeColor=#d6b656;fontFamily=Comic Sans MS;fontSize=10;fillColor=#fff2cc;size=10;align=left;verticalAlign=top;fontStyle=0;fontColor=#000099;" parent="1" vertex="1">
                    <mxGeometry x="640" y="253" width="116" height="48" as="geometry"/>
                </mxCell>
                <mxCell id="qWAj0_rxd9BKLFwcTVyo-42" value="" style="endArrow=none;dashed=1;html=1;dashPattern=1 3;strokeWidth=1;sketch=1;fontFamily=Comic Sans MS;fontSize=9;fontColor=#000099;exitX=0;exitY=0.5;exitDx=0;exitDy=0;exitPerimeter=0;entryX=1;entryY=0.75;entryDx=0;entryDy=0;" parent="1" source="qWAj0_rxd9BKLFwcTVyo-41" target="qWAj0_rxd9BKLFwcTVyo-38" edge="1">
                    <mxGeometry width="50" height="50" relative="1" as="geometry">
                        <mxPoint x="446" y="340" as="sourcePoint"/>
                        <mxPoint x="429.2099999999998" y="296" as="targetPoint"/>
                    </mxGeometry>
                </mxCell>
                <mxCell id="qWAj0_rxd9BKLFwcTVyo-43" value="7. Vector Store accumulates user-specific data (workbooks and answers)&amp;nbsp;&amp;nbsp;" style="shape=note;whiteSpace=wrap;html=1;backgroundOutline=1;darkOpacity=0.05;sketch=1;strokeColor=#d6b656;fontFamily=Comic Sans MS;fontSize=10;fillColor=#fff2cc;size=10;align=left;verticalAlign=top;fontStyle=0;fontColor=#000099;" parent="1" vertex="1">
                    <mxGeometry x="640" y="148" width="108" height="72" as="geometry"/>
                </mxCell>
                <mxCell id="qWAj0_rxd9BKLFwcTVyo-44" value="" style="endArrow=none;dashed=1;html=1;dashPattern=1 3;strokeWidth=1;sketch=1;fontFamily=Comic Sans MS;fontSize=9;fontColor=#000099;exitX=0;exitY=0.5;exitDx=0;exitDy=0;exitPerimeter=0;entryX=1;entryY=0;entryDx=0;entryDy=14.374984741210938;entryPerimeter=0;" parent="1" source="qWAj0_rxd9BKLFwcTVyo-43" target="qWAj0_rxd9BKLFwcTVyo-22" edge="1">
                    <mxGeometry width="50" height="50" relative="1" as="geometry">
                        <mxPoint x="644" y="281" as="sourcePoint"/>
                        <mxPoint x="580" y="245" as="targetPoint"/>
                    </mxGeometry>
                </mxCell>
            </root>
        </mxGraphModel>
    </diagram>
</mxfile>